<svg width="21" height="23" viewBox="0 0 21 23" fill="none" xmlns="http://www.w3.org/2000/svg">
<path d="M20.6881 6.33205C20.5527 6.18992 20.3646 6.10938 20.168 6.10938H15.8906V5.39062C15.8906 2.61635 13.6337 0.359375 10.8594 0.359375H10.1406C7.36635 0.359375 5.10938 2.61635 5.10938 5.39062V6.10938H0.831972C0.635439 6.10938 0.447328 6.18992 0.311861 6.33205C0.176042 6.47437 0.104799 6.66599 0.113924 6.86234L0.767397 20.5869C0.822496 21.7387 1.76831 22.6406 2.92119 22.6406H18.0788C19.2317 22.6406 20.1775 21.7387 20.2326 20.5869L20.8861 6.86234C20.8952 6.66599 20.824 6.47437 20.6881 6.33205ZM6.54688 5.39062C6.54688 3.40897 8.15915 1.79688 10.1406 1.79688H10.8594C12.8409 1.79688 14.4531 3.40897 14.4531 5.39062V6.10938H6.54688V5.39062ZM18.7965 20.5188C18.7783 20.9024 18.4631 21.2031 18.0788 21.2031H2.92119C2.5369 21.2031 2.22174 20.9024 2.20349 20.5188L1.58582 7.54688H5.10938V10.0625C5.10938 10.4594 5.4312 10.7812 5.82813 10.7812C6.22505 10.7812 6.54688 10.4594 6.54688 10.0625V7.54688H14.4531V10.0625C14.4531 10.4594 14.775 10.7812 15.1719 10.7812C15.5688 10.7812 15.8906 10.4594 15.8906 10.0625V7.54688H19.4142L18.7965 20.5188Z" fill="#031C45"/>
<path d="M6.22681 12.7004C6.1875 12.6752 6.14784 12.6502 6.10468 12.632C6.058 12.6141 6.01483 12.5997 5.96815 12.5927C5.73477 12.546 5.48665 12.6215 5.32135 12.7903C5.18483 12.9233 5.10938 13.1065 5.10938 13.297C5.10938 13.3939 5.12727 13.4838 5.16307 13.5736C5.19922 13.6599 5.25291 13.7389 5.32135 13.8038C5.38593 13.8719 5.46524 13.926 5.55122 13.9618C5.64107 13.9979 5.73091 14.0158 5.82812 14.0158C6.01869 14.0158 6.20189 13.9403 6.3349 13.8038C6.40298 13.7389 6.45703 13.6599 6.49283 13.5736C6.52898 13.4838 6.54688 13.3939 6.54688 13.297C6.54688 13.1065 6.47142 12.9233 6.3349 12.7903C6.30226 12.7545 6.26646 12.7257 6.22681 12.7004Z" fill="#031C45"/>
<path d="M15.8366 13.0201C15.8187 12.977 15.7934 12.9377 15.7685 12.898C15.7432 12.8587 15.7144 12.8226 15.6786 12.7903C15.5134 12.6215 15.2652 12.546 15.0315 12.5927C14.9848 12.5997 14.9381 12.6141 14.895 12.632C14.8518 12.6502 14.8125 12.6752 14.7728 12.7004C14.7335 12.7257 14.6974 12.7545 14.6651 12.7903C14.6293 12.8226 14.6005 12.8587 14.5753 12.898C14.5465 12.9377 14.5251 12.977 14.5068 13.0201C14.4889 13.0668 14.4745 13.11 14.4675 13.1567C14.4566 13.2037 14.4531 13.2504 14.4531 13.297C14.4531 13.3939 14.471 13.4838 14.5068 13.5736C14.543 13.6599 14.5967 13.7389 14.6651 13.8038C14.6974 13.8396 14.7335 13.8684 14.7728 13.8937C14.8125 13.9224 14.8518 13.9439 14.895 13.9618C14.9381 13.9797 14.9848 13.994 15.0315 14.0014C15.0785 14.0123 15.1252 14.0158 15.1719 14.0158C15.2186 14.0158 15.2652 14.0123 15.3119 14.0014C15.3586 13.994 15.4053 13.9797 15.4484 13.9618C15.4881 13.9439 15.5312 13.9224 15.5706 13.8937C15.6102 13.8684 15.646 13.8396 15.6786 13.8038C15.7467 13.7389 15.8008 13.6599 15.8366 13.5736C15.8727 13.4838 15.8906 13.3939 15.8906 13.297C15.8906 13.2504 15.8833 13.2037 15.8762 13.1567C15.8654 13.11 15.8545 13.0668 15.8366 13.0201Z" fill="#031C45"/>
<path d="M13.0156 15.8125H10.5C10.1031 15.8125 9.78125 16.1343 9.78125 16.5312C9.78125 16.9282 10.1031 17.25 10.5 17.25H12.1467C11.8691 17.8842 11.2352 18.3281 10.5 18.3281C9.50926 18.3281 8.70312 17.522 8.70312 16.5312C8.70312 16.1343 8.3813 15.8125 7.98438 15.8125C7.58745 15.8125 7.26562 16.1343 7.26562 16.5312C7.26562 18.3148 8.71646 19.7656 10.5 19.7656C12.2835 19.7656 13.7344 18.3148 13.7344 16.5312C13.7344 16.1343 13.4126 15.8125 13.0156 15.8125Z" fill="#031C45"/>
</svg>
