<?xml version="1.0" encoding="utf-8"?>
<!-- Svg Vector Icons : http://www.onlinewebfonts.com/icon -->
<!DOCTYPE svg PUBLIC "-//W3C//DTD SVG 1.1//EN" "http://www.w3.org/Graphics/SVG/1.1/DTD/svg11.dtd">
<svg version="1.1" xmlns="http://www.w3.org/2000/svg" xmlns:xlink="http://www.w3.org/1999/xlink" x="0px" y="0px" viewBox="0 0 256 256" enable-background="new 0 0 256 256" xml:space="preserve">
<metadata> Svg Vector Icons : http://www.onlinewebfonts.com/icon </metadata>
<g><g><path fill="#000000" d="M177.8,76.2c2.7,0,4.8-2.2,4.8-4.9v-4.9c0-2.7-2.1-5-4.8-5H84.1c-2.7,0-5,2.2-5,5v4.9c0,2.7,2.3,4.9,5,4.9H177.8z"/><path fill="#000000" d="M57,115.7c-4.1,0-7.4,3.3-7.4,7.4c0,4.1,3.3,7.4,7.4,7.4c4.1,0,7.4-3.3,7.4-7.4C64.4,119,61,115.7,57,115.7z"/><path fill="#000000" d="M84.1,169.9c-2.7,0-5,2.2-5,5v4.9c0,2.7,2.3,4.9,5,4.9h49.3c2.7,0,4.8-2.2,4.8-4.9v-4.9c0-2.7-2.1-5-4.8-5L84.1,169.9L84.1,169.9z"/><path fill="#000000" d="M182.7,125.5L182.7,125.5l-0.1-4.9c0-2.7-2.1-5-4.8-5H84.1c-2.7,0-5,2.2-5,5v4.9c0,2.7,2.3,4.9,5,4.9h93.7C180.5,130.5,182.7,128.3,182.7,125.5z"/><path fill="#000000" d="M245,161c-0.7-0.6-1.6-0.9-2.5-0.9c-2.1,0-3.9,1.7-3.9,1.7l-56.9,52.6l-23.1-18.5c-1.4-1.2-2.7-1.8-4.1-1.8c-1,0-2,0.4-3,1.1c-3.3,2.5-0.7,6.6-0.6,6.7l25.5,34.5c1.5,1.8,3.1,2.6,4.6,2.6c2.6,0,4.5-2.5,4.5-2.6l59-69.4C246.8,163.8,246,161.7,245,161z"/><path fill="#000000" d="M57,169.9c-4.1,0-7.4,3.3-7.4,7.4s3.3,7.4,7.4,7.4c4.1,0,7.4-3.3,7.4-7.4S61,169.9,57,169.9z"/><path fill="#000000" d="M57,61.4c-4.1,0-7.4,3.3-7.4,7.4c0,4.1,3.3,7.4,7.4,7.4c4.1,0,7.4-3.3,7.4-7.4C64.4,64.8,61,61.4,57,61.4z"/><path fill="#000000" d="M151.8,234.1L151.8,234.1l-11.1-0.1h-18.2H24.8V22h182.5v119.2c0.3,0,0.2,0,0.4,0.1c-0.1,0.5-0.3,1-0.3,1.6c0,4.1,3.3,7.4,7.4,7.4c3.3,0,5.9-2.1,6.9-5.1c0.1,0,0.4,0.1,0.4,0.1v-2.5V17.1c0-5.5-4.3-9.9-9.7-9.9H20c-5.4,0-10,4.4-10,9.9V239c0,5.4,4.5,9.8,10,9.8h131.3v0c4.1,0,7.4-3.3,7.4-7.4C158.7,237.5,155.6,234.3,151.8,234.1z"/></g></g>
</svg>