<svg width="12" height="22" viewBox="0 0 12 22" fill="none" xmlns="http://www.w3.org/2000/svg">
<path d="M11.6247 1.99979C11.6255 2.14785 11.5972 2.29462 11.5412 2.43169C11.4852 2.56875 11.4027 2.69342 11.2984 2.79854L3.08594 10.9998L11.2984 19.201C11.5103 19.4129 11.6293 19.7002 11.6293 19.9998C11.6293 20.2994 11.5103 20.5867 11.2984 20.7985C11.0866 21.0104 10.7993 21.1294 10.4997 21.1294C10.2001 21.1294 9.91278 21.0104 9.70094 20.7985L0.700937 11.7985C0.595492 11.694 0.511799 11.5695 0.454684 11.4324C0.397569 11.2953 0.368164 11.1483 0.368164 10.9998C0.368164 10.8513 0.397569 10.7042 0.454684 10.5671C0.511799 10.4301 0.595492 10.3056 0.700937 10.201L9.70094 1.20104C9.80552 1.0956 9.92995 1.0119 10.067 0.954788C10.2041 0.897672 10.3512 0.868269 10.4997 0.868269C10.6482 0.868269 10.7952 0.897672 10.9323 0.954788C11.0694 1.0119 11.1939 1.0956 11.2984 1.20104C11.4027 1.30616 11.4852 1.43083 11.5412 1.5679C11.5972 1.70496 11.6255 1.85173 11.6247 1.99979Z" fill="#031C45"/>
</svg>
