<svg xmlns="http://www.w3.org/2000/svg" width="133" height="133" viewBox="0 0 133 133" fill="none"><g clip-path="url(#a)"><path d="M66.5 133c36.727 0 66.5-29.773 66.5-66.5C133 29.773 103.227 0 66.5 0 29.773 0 0 29.773 0 66.5 0 103.227 29.773 133 66.5 133z" fill="#32BA7C"/><path d="M49.508 96.498l34.194 34.194C112.022 123.14 133 97.337 133 66.5v-1.888l-26.852-24.754-56.64 56.64z" fill="#0AA06E"/><path d="M68.178 81.394c2.937 2.937 2.937 7.972 0 10.909l-6.084 6.083c-2.936 2.937-7.971 2.937-10.908 0L24.544 71.535c-2.937-2.937-2.937-7.972 0-10.909l6.084-6.083c2.937-2.937 7.971-2.937 10.908 0l26.642 26.851z" fill="#fff"/><path d="M91.463 35.033c2.937-2.937 7.972-2.937 10.909 0l6.084 6.084c2.937 2.937 2.937 7.971 0 10.908L62.304 97.967c-2.937 2.937-7.971 2.937-10.908 0l-6.084-6.084c-2.937-2.937-2.937-7.971 0-10.908l46.151-45.942z" fill="#fff"/></g><defs><clipPath id="a"><path fill="#fff" d="M0 0h133v133H0z"/></clipPath></defs></svg>