<svg width="20" height="24" viewBox="0 0 20 24" fill="none" xmlns="http://www.w3.org/2000/svg">
    <path d="M16.7725 12.1576C16.6909 12.0766 16.5942 12.0124 16.4878 11.9688C16.3814 11.9252 16.2675 11.9029 16.1525 11.9033C16.0376 11.9037 15.9238 11.9268 15.8177 11.9712C15.7117 12.0155 15.6154 12.0804 15.5344 12.1619C15.4534 12.2435 15.3892 12.3403 15.3456 12.4466C15.302 12.553 15.2797 12.6669 15.2801 12.7819C15.2805 12.8969 15.3036 13.0106 15.348 13.1167C15.3923 13.2228 15.4572 13.3191 15.5387 13.4001C16.2791 14.1326 16.8669 15.0048 17.2679 15.966C17.6689 16.9273 17.8753 17.9585 17.875 19.0001C17.875 20.0676 14.8037 21.6251 9.99999 21.6251C5.19624 21.6251 2.12499 20.0676 2.12499 19.0001C2.12361 17.9654 2.32613 16.9406 2.72099 15.9842C3.11585 15.0278 3.69531 14.1586 4.42624 13.4263C4.58921 13.2624 4.68069 13.0406 4.68069 12.8094C4.68069 12.5783 4.58921 12.3565 4.42624 12.1926C4.2623 12.0296 4.04053 11.9381 3.80937 11.9381C3.57821 11.9381 3.35644 12.0296 3.19249 12.1926C2.29571 13.0843 1.58489 14.1453 1.10123 15.3138C0.617585 16.4824 0.370733 17.7354 0.374993 19.0001C0.374993 21.8438 5.33624 23.3751 9.99999 23.3751C14.6637 23.3751 19.625 21.8438 19.625 19.0001C19.6284 17.7272 19.3778 16.4664 18.888 15.2915C18.3982 14.1166 17.679 13.0512 16.7725 12.1576Z" fill="#031C45"/>
    <path d="M10 12.875C11.2114 12.875 12.3956 12.5158 13.4029 11.8428C14.4101 11.1697 15.1952 10.2131 15.6588 9.09394C16.1223 7.97474 16.2436 6.74321 16.0073 5.55507C15.771 4.36694 15.1876 3.27557 14.331 2.41897C13.4744 1.56238 12.3831 0.979027 11.1949 0.742693C10.0068 0.506358 8.77526 0.627654 7.65606 1.09124C6.53687 1.55483 5.58027 2.33988 4.90725 3.34713C4.23422 4.35439 3.875 5.53859 3.875 6.75C3.875 8.37445 4.52031 9.93237 5.66897 11.081C6.81763 12.2297 8.37555 12.875 10 12.875ZM10 2.375C10.8653 2.375 11.7112 2.63159 12.4306 3.11232C13.1501 3.59305 13.7108 4.27634 14.042 5.07576C14.3731 5.87519 14.4597 6.75486 14.2909 7.60352C14.1221 8.45219 13.7054 9.23174 13.0936 9.84359C12.4817 10.4554 11.7022 10.8721 10.8535 11.0409C10.0049 11.2097 9.12519 11.1231 8.32576 10.792C7.52633 10.4608 6.84305 9.90009 6.36232 9.18062C5.88159 8.46116 5.625 7.6153 5.625 6.75C5.625 5.58968 6.08594 4.47688 6.90641 3.65641C7.72688 2.83594 8.83968 2.375 10 2.375Z" fill="#031C45"/>
</svg>
