<svg xmlns="http://www.w3.org/2000/svg" width="58" height="67" viewBox="0 0 58 67" fill="none"><path d="M57.83 58.414L48.175 41.69a2.572 2.572 0 0 1 1.366-.832 5.137 5.137 0 0 0 3.462-2.778 5.127 5.127 0 0 0 .015-4.438 2.576 2.576 0 0 1 .71-3.114 5.13 5.13 0 0 0 1.911-4.003 5.13 5.13 0 0 0-1.911-4.004 2.576 2.576 0 0 1-.71-3.114 5.127 5.127 0 0 0-.016-4.438 5.13 5.13 0 0 0-3.46-2.778 2.578 2.578 0 0 1-1.993-2.496 5.133 5.133 0 0 0-1.938-3.991A5.138 5.138 0 0 0 41.287 4.7a2.577 2.577 0 0 1-2.878-1.385A5.119 5.119 0 0 0 34.93.56a5.136 5.136 0 0 0-4.331.973c-.94.74-2.252.74-3.194 0A5.133 5.133 0 0 0 23.072.56a5.127 5.127 0 0 0-3.48 2.756A2.577 2.577 0 0 1 16.714 4.7a5.125 5.125 0 0 0-4.323 1.004 5.133 5.133 0 0 0-1.939 3.991 2.578 2.578 0 0 1-1.992 2.496 5.138 5.138 0 0 0-3.461 2.778 5.127 5.127 0 0 0-.015 4.438 2.58 2.58 0 0 1-.71 3.114 5.13 5.13 0 0 0-1.912 4.004 5.13 5.13 0 0 0 1.912 4.003 2.576 2.576 0 0 1 .71 3.114 5.127 5.127 0 0 0 .015 4.438 5.13 5.13 0 0 0 3.461 2.778 2.56 2.56 0 0 1 1.366.832L.171 58.414c-.26.45-.221 1.01.096 1.423a1.29 1.29 0 0 0 1.354.458l6.725-1.824 1.782 6.735a1.283 1.283 0 0 0 2.35.313l8.236-14.268a5.171 5.171 0 0 0 2.35 1.24 5.135 5.135 0 0 0 4.332-.973 2.574 2.574 0 0 1 3.194 0 5.136 5.136 0 0 0 4.328.973 5.099 5.099 0 0 0 2.35-1.24l8.24 14.268a1.283 1.283 0 0 0 2.35-.313l1.783-6.735 6.724 1.824a1.277 1.277 0 0 0 1.354-.458c.332-.412.37-.973.111-1.423zm-46.004 3.125l-1.317-4.976a1.264 1.264 0 0 0-.599-.782 1.27 1.27 0 0 0-.977-.127l-4.965 1.348 6.839-11.842c.324.847.87 1.603 1.599 2.187a5.138 5.138 0 0 0 4.324 1.003 2.575 2.575 0 0 1 2.339.653l-7.243 12.536zm22.538-11.552a2.567 2.567 0 0 1-2.171-.488 5.148 5.148 0 0 0-3.183-1.107 5.14 5.14 0 0 0-3.183 1.107 2.58 2.58 0 0 1-3.915-.893 5.136 5.136 0 0 0-5.736-2.763 2.584 2.584 0 0 1-3.14-2.503 5.132 5.132 0 0 0-3.97-4.977 2.57 2.57 0 0 1-1.736-1.392 2.57 2.57 0 0 1-.007-2.225 5.138 5.138 0 0 0-1.416-6.206 2.566 2.566 0 0 1-.958-2.007c0-.782.351-1.515.958-2.007a5.139 5.139 0 0 0 1.416-6.209 2.57 2.57 0 0 1 .007-2.225A2.57 2.57 0 0 1 9.067 14.7a5.136 5.136 0 0 0 3.969-4.976 2.555 2.555 0 0 1 .973-2 2.579 2.579 0 0 1 2.167-.503 5.136 5.136 0 0 0 5.736-2.763 2.576 2.576 0 0 1 1.744-1.382 2.567 2.567 0 0 1 2.172.489 5.137 5.137 0 0 0 6.365 0 2.58 2.58 0 0 1 3.915.893 5.136 5.136 0 0 0 5.736 2.763 2.563 2.563 0 0 1 2.168.503c.61.489.965 1.218.973 2a5.132 5.132 0 0 0 3.969 4.976 2.57 2.57 0 0 1 1.736 1.393 2.57 2.57 0 0 1 .008 2.225 5.144 5.144 0 0 0 1.415 6.209c.611.492.958 1.225.958 2.007s-.35 1.515-.958 2.008a5.135 5.135 0 0 0-1.415 6.205 2.57 2.57 0 0 1-.008 2.224 2.57 2.57 0 0 1-1.736 1.393 5.136 5.136 0 0 0-3.97 4.977 2.554 2.554 0 0 1-.972 2 2.579 2.579 0 0 1-2.168.503 5.136 5.136 0 0 0-5.736 2.763 2.584 2.584 0 0 1-1.744 1.381zm14.72 5.667a1.302 1.302 0 0 0-.978.127 1.285 1.285 0 0 0-.599.782l-1.316 4.976-7.24-12.536a2.575 2.575 0 0 1 2.34-.653 5.126 5.126 0 0 0 4.323-1.003 5.166 5.166 0 0 0 1.6-2.187l6.838 11.842-4.969-1.348z" fill="#44AD4D"/><path d="M35.116 36.234a1.277 1.277 0 0 0 1.221-1.675l-2.022-6.293 5.335-3.92a1.285 1.285 0 0 0-.76-2.32h-6.602l-2.057-6.274a1.288 1.288 0 0 0-2.442 0l-2.06 6.274h-6.603c-.553 0-1.045.355-1.22.886a1.282 1.282 0 0 0 .46 1.435l5.336 3.919-2.023 6.293c-.168.526.02 1.106.47 1.43.45.329 1.057.329 1.507.005l5.358-3.866 5.358 3.865c.217.16.48.241.744.241zm-5.358-6.736a1.299 1.299 0 0 0-.752-.244c-.263 0-.526.08-.751.244l-2.939 2.122 1.11-3.45a1.283 1.283 0 0 0-.461-1.427l-2.927-2.152h3.618c.553 0 1.045-.355 1.22-.882l1.13-3.442 1.13 3.442a1.28 1.28 0 0 0 1.221.882h3.618l-2.927 2.152c-.447.328-.63.9-.462 1.427l1.11 3.45-2.938-2.122z" fill="#44AD4D"/><path d="M46.98 26.526c0-9.911-8.063-17.975-17.974-17.975-9.91 0-17.974 8.064-17.974 17.975 0 7.54 4.759 14.33 11.846 16.901a1.285 1.285 0 0 0 1.644-.767 1.284 1.284 0 0 0-.77-1.644C17.68 38.814 13.6 32.99 13.6 26.529c0-8.494 6.912-15.406 15.406-15.406 8.495 0 15.406 6.912 15.406 15.406 0 6.465-4.08 12.285-10.15 14.487a1.284 1.284 0 1 0 .873 2.415c7.083-2.572 11.846-9.365 11.846-16.905z" fill="#44AD4D"/><path d="M29.006 41.931a1.31 1.31 0 0 0-.908.375c-.24.24-.378.568-.378.908a1.29 1.29 0 0 0 1.286 1.286 1.289 1.289 0 0 0 1.286-1.286c0-.336-.137-.668-.377-.908a1.302 1.302 0 0 0-.909-.374z" fill="#44AD4D"/></svg>