<svg xmlns="http://www.w3.org/2000/svg" width="58" height="52" viewBox="0 0 58 52" fill="none"><path d="M19.18 38.885a7.892 7.892 0 0 0 2.457-5.714c0-4.388-3.608-7.957-8.043-7.957-4.435 0-8.043 3.57-8.043 7.957a7.89 7.89 0 0 0 2.44 5.702C3.283 40.83 0 45.174 0 50.205c0 .93.759 1.68 1.698 1.68s1.697-.75 1.697-1.68c0-5.007 4.576-9.077 10.195-9.077 5.559 0 10.082 4.074 10.082 9.077 0 .93.759 1.68 1.698 1.68s1.697-.75 1.697-1.68c.005-5.019-3.235-9.355-7.886-11.32zM8.95 33.17c0-2.533 2.083-4.594 4.644-4.594 2.56 0 4.644 2.06 4.644 4.594 0 2.533-2.083 4.594-4.644 4.594-2.56 0-4.644-2.06-4.644-4.594zm21.974-8.067c0 .929.76 1.68 1.698 1.68.94 0 1.698-.751 1.698-1.68 0-5.007 4.523-9.077 10.082-9.077 5.623 0 10.194 4.073 10.194 9.077 0 .929.76 1.68 1.698 1.68.94 0 1.698-.751 1.698-1.68 0-5.031-3.283-9.375-7.991-11.333a7.882 7.882 0 0 0 2.44-5.702c0-4.387-3.608-7.957-8.043-7.957-4.435 0-8.043 3.57-8.043 7.957 0 2.24.943 4.269 2.456 5.714-4.648 1.966-7.887 6.302-7.887 11.32zm8.834-17.035c0-2.533 2.083-4.594 4.644-4.594 2.56 0 4.644 2.061 4.644 4.594 0 2.534-2.083 4.595-4.644 4.595-2.56 0-4.644-2.061-4.644-4.595zM7.136 21.406h16.54c1.874 0 3.4-1.509 3.4-3.363v-3.697c.144-.143 1.232-1.346 4.31-4.812 2.228-2.204 1.124-5.305-1.666-5.806-.349-.063 1.16-.027-22.584-.027-1.874 0-3.4 1.508-3.4 3.363v10.983c0 1.85 1.526 3.359 3.4 3.359zm0-14.346c13.22 0 20.048.004 21.938.004-.213.214-1.409 1.461-4.322 4.709-.695.71-1.08 1.616-1.08 2.573v3.697H7.136V7.06zm33.606 30.991a1.666 1.666 0 0 0-.47 2.33 1.707 1.707 0 0 0 2.356.465 1.67 1.67 0 0 0 .47-2.33 1.71 1.71 0 0 0-2.356-.465zm6.53 1.723c.309 1.477 2.26 1.843 3.078.604.819-1.227-.225-2.863-1.746-2.581a1.684 1.684 0 0 0-1.332 1.977z" fill="#44AD4D"/><path d="M58 44.94V33.957c0-1.854-1.525-3.363-3.4-3.363-27.958 0-25.991-.032-26.32.028-2.794.504-3.894 3.605-1.666 5.805 3.082 3.466 4.166 4.67 4.31 4.812v3.697c0 1.854 1.526 3.363 3.4 3.363H54.6c1.875 0 3.4-1.505 3.4-3.359zm-3.4 0H34.325v-3.697c0-.96-.381-1.862-1.08-2.573-2.913-3.248-4.11-4.494-4.322-4.709 1.89 0 12.458-.004 25.678-.004V44.94z" fill="#44AD4D"/></svg>