<svg xmlns="http://www.w3.org/2000/svg" width="47" height="66" viewBox="0 0 47 66" fill="none"><g clip-path="url(#a)" fill="#44AD4D"><path d="M11.765 41.565a4.902 4.902 0 0 0-3.472-8.368c-.757 0-1.49.172-2.15.494a19.602 19.602 0 0 1-3.56-11.327c0-10.492 8.21-19.182 18.69-19.786a1.29 1.29 0 1 0-.15-2.575C9.279.686 0 10.508 0 22.364a22.16 22.16 0 0 0 4.194 13.04 4.903 4.903 0 0 0 4.102 7.597 4.88 4.88 0 0 0 3.47-1.436zM6.65 36.457a2.323 2.323 0 0 1 1.645-.679 2.322 2.322 0 0 1 1.645 3.963 2.331 2.331 0 0 1-3.289 0 2.32 2.32 0 0 1-.001-3.284z"/><path d="M42.357 44.688a4.6 4.6 0 0 0-2.25.585 4.63 4.63 0 0 0-4.41-3.229 4.612 4.612 0 0 0-3.33 1.418 4.64 4.64 0 0 0-.775-.645 22.488 22.488 0 0 0 7.826-5.812 22.374 22.374 0 0 0 5.455-14.64c0-4.728-1.447-9.223-4.192-13.04a4.903 4.903 0 0 0-.63-6.16 4.922 4.922 0 0 0-6.943 0 4.902 4.902 0 0 0 0 6.931 4.895 4.895 0 0 0 3.472 1.433 4.93 4.93 0 0 0 2.148-.493 19.604 19.604 0 0 1 3.562 11.33c0 9.33-6.345 17.217-15.29 19.294v-6.943c5.123-1.888 8.623-6.832 8.623-12.352 0-7.258-5.915-13.164-13.186-13.164-7.27 0-13.185 5.905-13.185 13.164 0 2.865.906 5.59 2.62 7.878a13.323 13.323 0 0 0 5.883 4.429v18.972l-1.623-2.658a4.765 4.765 0 0 0-6.482-1.652 4.796 4.796 0 0 0-1.91 6.228l4.818 9.72a1.292 1.292 0 0 0 2.317-1.145l-4.815-9.709a2.208 2.208 0 0 1 .883-2.862 2.218 2.218 0 0 1 2.983.76l4.018 6.584c.302.494.895.727 1.453.571a1.29 1.29 0 0 0 .942-1.242V28.644a2.038 2.038 0 0 1 4.077 0v24.498a1.29 1.29 0 1 0 2.584 0v-6.483a2.039 2.039 0 0 1 4.075 0v6.952a1.29 1.29 0 0 0 2.583 0v-6.952a2.039 2.039 0 0 1 4.076 0v7.04a1.291 1.291 0 0 0 2.584 0v-4.395a2.04 2.04 0 0 1 4.078 0v15.407a1.29 1.29 0 0 0 2.583 0v-15.41a4.624 4.624 0 0 0-4.622-4.613zM34.935 8.27a2.322 2.322 0 0 1 1.644-3.962 2.322 2.322 0 0 1 1.645 3.961 2.331 2.331 0 0 1-3.29 0zm-23.1 14.093c0-5.837 4.757-10.585 10.602-10.585 5.846 0 10.602 4.75 10.602 10.585 0 4.11-2.412 7.823-6.04 9.556v-3.277a4.58 4.58 0 0 0-.467-2.021 5.93 5.93 0 0 0 1.823-4.26c0-3.257-2.655-5.907-5.918-5.907-3.263 0-5.917 2.65-5.917 5.908 0 1.571.64 3.082 1.743 4.183a4.582 4.582 0 0 0-.508 2.097v3.223a10.525 10.525 0 0 1-5.92-9.502zm8.198 2.306a3.294 3.294 0 0 1-.93-2.305 3.334 3.334 0 0 1 6.668 0c0 .887-.361 1.733-.975 2.35a4.601 4.601 0 0 0-2.418-.683 4.57 4.57 0 0 0-2.345.638zM27.012 3.04c.34 0 .673-.138.913-.378s.378-.572.378-.913c0-.339-.138-.671-.378-.911a1.302 1.302 0 0 0-.913-.378 1.3 1.3 0 0 0-.913.378 1.3 1.3 0 0 0-.378.911c0 .34.138.672.378.913.24.24.573.378.913.378z"/></g><defs><clipPath id="a"><path fill="#fff" d="M0 0h47v66H0z"/></clipPath></defs></svg>