<svg xmlns="http://www.w3.org/2000/svg" width="70" height="70" viewBox="0 0 70 70" fill="none"><path d="M35 2.734C17.21 2.734 2.734 17.21 2.734 35S17.21 67.266 35 67.266 67.266 52.79 67.266 35 52.79 2.734 35 2.734zM35 70c-9.348 0-18.137-3.64-24.748-10.252C3.64 53.138 0 44.348 0 35s3.64-18.137 10.252-24.748C16.862 3.64 25.652 0 35 0s18.137 3.64 24.748 10.252C66.36 16.862 70 25.652 70 35s-3.64 18.137-10.252 24.748C53.138 66.36 44.348 70 35 70z" fill="#44AD4D"/><path d="M35.027 62.614c-5.116 0-10.18-1.418-14.527-4.104a1.369 1.369 0 0 1 1.436-2.327c9.851 6.084 22.457 4.61 30.657-3.59 9.701-9.702 9.701-25.487 0-35.189-9.702-9.701-25.488-9.701-35.189 0a24.834 24.834 0 0 0-3.73 30.43 1.367 1.367 0 0 1-2.34 1.411c-3.128-5.19-4.466-11.38-3.766-17.43.718-6.241 3.453-11.892 7.904-16.343 10.769-10.77 28.29-10.77 39.056 0 10.77 10.77 10.77 28.29 0 39.056a27.695 27.695 0 0 1-16.483 7.922c-1.005.11-2.013.164-3.018.164z" fill="#44AD4D"/><path d="M16.45 54.938c-.35 0-.703-.135-.97-.404l-.02-.02a1.366 1.366 0 1 1 1.938-1.927l.021.02a1.366 1.366 0 0 1-.969 2.331zm13.755-7.643a1.368 1.368 0 0 0 0 2.734h9.587a1.368 1.368 0 0 0 0-2.734h-2.06a1.369 1.369 0 0 1-1.368-1.367v-13.65c0-.754-.613-1.367-1.367-1.367h-3.829a1.368 1.368 0 0 0 0 2.734h1.095c.754 0 1.367.613 1.367 1.367v10.913c0 .754-.613 1.367-1.367 1.367h-2.058v.003zm9.59 5.468h-9.587a4.106 4.106 0 0 1-4.102-4.101 4.106 4.106 0 0 1 4.102-4.101h.69v-8.188a4.107 4.107 0 0 1-3.828-4.092 4.106 4.106 0 0 1 4.1-4.101H35a4.106 4.106 0 0 1 4.101 4.1v12.284h.691a4.106 4.106 0 0 1 4.102 4.101 4.1 4.1 0 0 1-4.099 4.098zM35 19.97a1.369 1.369 0 0 0 0 2.734 1.367 1.367 0 1 0 0-2.733zm0 5.47a4.106 4.106 0 0 1-4.101-4.102A4.106 4.106 0 0 1 35 17.237a4.106 4.106 0 0 1 4.101 4.101A4.106 4.106 0 0 1 35 25.439z" fill="#44AD4D"/></svg>