<svg width="23" height="23" viewBox="0 0 23 23" fill="none" xmlns="http://www.w3.org/2000/svg">
<path d="M21.1667 10.2915H15.6083L17.1792 8.72067C17.6625 8.23734 17.6625 7.51234 17.1792 7.029C16.6958 6.54567 15.9708 6.54567 15.4875 7.029L11.8625 10.654C11.7417 10.7748 11.6208 10.8957 11.6208 11.0165C11.5 11.2582 11.5 11.6207 11.6208 11.9832C11.7417 12.104 11.7417 12.2248 11.8625 12.3457L15.4875 15.9707C15.7292 16.2123 16.0917 16.3332 16.3333 16.3332C16.575 16.3332 16.9375 16.2123 17.1792 15.9707C17.6625 15.4873 17.6625 14.7623 17.1792 14.279L15.6083 12.7082H21.1667C21.8917 12.7082 22.375 12.2248 22.375 11.4998C22.375 10.7748 21.8917 10.2915 21.1667 10.2915Z" fill="#031C45"/>
<path d="M15.7292 18.8708C14.4 19.5958 12.95 19.9583 11.5 19.9583C6.7875 19.9583 3.04167 16.2125 3.04167 11.5C3.04167 6.7875 6.7875 3.04167 11.5 3.04167C12.95 3.04167 14.4 3.40417 15.7292 4.12917C16.3333 4.49167 17.0583 4.25 17.4208 3.64583C17.7833 3.04167 17.5417 2.31667 16.9375 1.95417C15.2458 1.10833 13.4333 0.625 11.5 0.625C5.45833 0.625 0.625 5.45833 0.625 11.5C0.625 17.5417 5.45833 22.375 11.5 22.375C13.4333 22.375 15.2458 21.8917 16.9375 20.925C17.5417 20.5625 17.6625 19.8375 17.4208 19.2333C17.0583 18.75 16.3333 18.5083 15.7292 18.8708Z" fill="#031C45"/>
</svg>
