<svg width="26" height="26" viewBox="0 0 26 26" fill="none" xmlns="http://www.w3.org/2000/svg">
<g clip-path="url(#clip0_211_472)">
<path d="M15.4375 3.25V8.9375H21.125" stroke="#031C45" stroke-width="1.5" stroke-linecap="round" stroke-linejoin="round"/>
<path d="M17.875 22.75H20.3125C20.528 22.75 20.7347 22.6644 20.887 22.512C21.0394 22.3597 21.125 22.153 21.125 21.9375V8.9375L15.4375 3.25H5.6875C5.47201 3.25 5.26535 3.3356 5.11298 3.48798C4.9606 3.64035 4.875 3.84701 4.875 4.0625V13" stroke="#031C45" stroke-width="1.5" stroke-linecap="round" stroke-linejoin="round"/>
<path d="M10.5625 16.25H4.875C4.42627 16.25 4.0625 16.6138 4.0625 17.0625V21.125C4.0625 21.5737 4.42627 21.9375 4.875 21.9375H10.5625C11.0112 21.9375 11.375 21.5737 11.375 21.125V17.0625C11.375 16.6138 11.0112 16.25 10.5625 16.25Z" stroke="#031C45" stroke-width="1.5" stroke-linecap="round" stroke-linejoin="round"/>
<path d="M11.375 18.2812L14.625 16.6562V21.6531L11.375 19.9062" stroke="#031C45" stroke-width="1.5" stroke-linecap="round" stroke-linejoin="round"/>
</g>
<defs>
<clipPath id="clip0_211_472">
<rect width="26" height="26" fill="white"/>
</clipPath>
</defs>
</svg>
