<svg width="22" height="21" viewBox="0 0 22 21" fill="none" xmlns="http://www.w3.org/2000/svg">
<path d="M17.5007 7.83317C19.8943 7.83317 21.8347 9.77363 21.8347 12.1672C21.8347 13.2668 21.4251 14.2709 20.7503 15.035L20.7502 20.0193C20.7502 20.6376 20.0953 21.0153 19.5693 20.7439L19.4723 20.6853L17.5003 19.307L15.529 20.6853C15.0221 21.0394 14.3374 20.719 14.2587 20.1322L14.2512 20.0193L14.2501 15.0339C13.5758 14.2699 13.1667 13.2663 13.1667 12.1672C13.1667 9.77363 15.107 7.83317 17.5007 7.83317ZM19.1244 16.1869C18.6229 16.3896 18.0748 16.5012 17.5007 16.5012C16.9257 16.5012 16.3769 16.3892 15.8749 16.186L15.8753 18.4598L17.0354 17.6504C17.2799 17.4796 17.5951 17.4583 17.8573 17.5864L17.9661 17.6504L19.1242 18.4598L19.1244 16.1869ZM18.8542 0.254395C20.4385 0.254395 21.7341 1.49124 21.8279 3.05207L21.8333 3.23356L21.8349 8.91661C21.3969 8.33356 20.8439 7.84173 20.2097 7.47477L20.2083 3.23356C20.2083 2.53242 19.6754 1.95573 18.9926 1.88638L18.8542 1.87939H3.14584C2.44469 1.87939 1.86801 2.41225 1.79866 3.0951L1.79167 3.23356V13.5252C1.79167 14.2264 2.32453 14.803 3.00738 14.8724L3.14584 14.8794L12.8109 14.8807L12.9451 15.1001L13.0899 15.3132L13.1667 15.4143L13.1656 16.5044H3.14584C1.56143 16.5044 0.265905 15.2675 0.17211 13.7067L0.166672 13.5252V3.23356C0.166672 1.64914 1.40351 0.353617 2.96436 0.259822L3.14584 0.254395H18.8542ZM17.5007 9.45817C16.0046 9.45817 14.7917 10.6711 14.7917 12.1672C14.7917 13.6633 16.0046 14.8762 17.5007 14.8762C18.9968 14.8762 20.2097 13.6633 20.2097 12.1672C20.2097 10.6711 18.9968 9.45817 17.5007 9.45817ZM10.1875 10.5415C10.6362 10.5415 11 10.9053 11 11.354C11 11.7653 10.6943 12.1053 10.2978 12.1591L10.1875 12.1665H5.3125C4.86378 12.1665 4.5 11.8027 4.5 11.354C4.5 10.9427 4.80567 10.6027 5.20225 10.5489L5.3125 10.5415H10.1875ZM16.6875 4.58317C17.1362 4.58317 17.5 4.94694 17.5 5.39567C17.5 5.80701 17.1943 6.14695 16.7978 6.20076L16.6875 6.20817H5.3125C4.86378 6.20817 4.5 5.84441 4.5 5.39567C4.5 4.98434 4.80567 4.64439 5.20225 4.59059L5.3125 4.58317H16.6875Z" fill="#031C45"/>
</svg>
