<svg width="24" height="22" viewBox="0 0 24 22" fill="none" xmlns="http://www.w3.org/2000/svg"><path d="M8.483 7.21l-7.024.78a.671.671 0 0 0-.562.457.66.66 0 0 0 .187.695C3.172 11.047 6.309 13.9 6.309 13.9c-.002 0-.861 4.15-1.432 6.92a.662.662 0 1 0 .979.712c2.459-1.397 6.141-3.498 6.141-3.498l6.139 3.5a.67.67 0 0 0 .721-.04.667.667 0 0 0 .26-.672c-.57-2.771-1.428-6.922-1.428-6.922s3.138-2.853 5.226-4.754a.665.665 0 1 0-.373-1.153c-2.811-.315-7.026-.782-7.026-.782L12.606.77a.674.674 0 0 0-.609-.392c-.269 0-.5.163-.604.392l-2.91 6.44z" fill="#D2D2D2"/></svg>