<svg width="14" height="14" viewBox="0 0 14 14" fill="none" xmlns="http://www.w3.org/2000/svg"><g clip-path="url(#a)"><path d="M13.963 5.37a.743.743 0 0 0-.64-.511l-4.04-.367-1.6-3.74a.744.744 0 0 0-1.368 0l-1.598 3.74-4.041.367A.744.744 0 0 0 .254 6.16L3.31 8.839l-.901 3.968a.744.744 0 0 0 1.107.804L7 11.527l3.484 2.084a.744.744 0 0 0 1.107-.804l-.9-3.968 3.054-2.678a.744.744 0 0 0 .219-.79z" fill="#43AE4E"/></g><defs><clipPath id="a"><path fill="#fff" d="M0 0h14v14H0z"/></clipPath></defs></svg>