<svg width="52" height="52" viewBox="0 0 52 52" fill="none" xmlns="http://www.w3.org/2000/svg"><path d="M48.953 29.682V4.672c0-.842-.682-1.524-1.523-1.524h-7.72V1.523a1.523 1.523 0 1 0-3.046 0v1.625H30.57V1.523a1.523 1.523 0 1 0-3.047 0v1.625H21.43V1.523a1.523 1.523 0 1 0-3.047 0v1.625h-6.094V1.523a1.523 1.523 0 1 0-3.047 0v1.625H1.523C.682 3.148 0 3.83 0 4.672v39.71c0 .842.682 1.524 1.523 1.524h25.371C29.357 49.578 33.545 52 38.29 52 45.85 52 52 45.85 52 38.29c0-3.258-1.143-6.253-3.047-8.608zM9.243 6.195V7.72a1.523 1.523 0 1 0 3.046 0V6.195h6.094V7.72a1.523 1.523 0 1 0 3.047 0V6.195h6.093V7.72a1.523 1.523 0 1 0 3.047 0V6.195h6.094V7.72a1.523 1.523 0 1 0 3.047 0V6.195h6.195v6.094H3.046V6.195h6.196zM3.046 42.86V15.336h42.86v11.558a13.633 13.633 0 0 0-7.618-2.316c-4.814 0-9.056 2.494-11.503 6.258a1.515 1.515 0 0 0-.684-.164h-3.047a1.523 1.523 0 1 0 0 3.047h2.308a13.58 13.58 0 0 0-.7 3.047h-1.608a1.523 1.523 0 1 0 0 3.047h1.608c.117 1.056.355 2.076.7 3.046H3.047zm35.242 6.094c-5.88 0-10.664-4.784-10.664-10.664s4.784-10.664 10.664-10.664S48.952 32.41 48.952 38.29 44.17 48.953 38.29 48.953z" fill="#009688"/><path d="M44.383 36.766h-4.57v-4.57a1.523 1.523 0 1 0-3.047 0v6.093c0 .841.682 1.523 1.523 1.523h6.094a1.523 1.523 0 1 0 0-3.046zm-30.57-18.282h-3.047a1.523 1.523 0 1 0 0 3.047h3.046a1.523 1.523 0 1 0 0-3.047zm0 6.094h-3.047a1.523 1.523 0 1 0 0 3.047h3.046a1.523 1.523 0 1 0 0-3.047zm0 6.094h-3.047a1.523 1.523 0 1 0 0 3.047h3.046a1.523 1.523 0 1 0 0-3.047zm9.242-9.141h3.047a1.523 1.523 0 1 0 0-3.047h-3.047a1.523 1.523 0 1 0 0 3.047zm0 6.094h3.047a1.523 1.523 0 1 0 0-3.047h-3.047a1.523 1.523 0 1 0 0 3.047zm-9.242 9.141h-3.047a1.523 1.523 0 1 0 0 3.047h3.046a1.523 1.523 0 1 0 0-3.047zm21.429-15.235h3.047a1.523 1.523 0 1 0 0-3.047h-3.047a1.523 1.523 0 1 0 0 3.047z" fill="#009688"/></svg>