<svg class="t-persons-social-links__svg" width="30" height="30" viewBox="0 0 100 100" fill="none" xmlns="http://www.w3.org/2000/svg"><path fill-rule="evenodd" clip-rule="evenodd" d="M50 100c27.614 0 50-22.386 50-50S77.614 0 50 0 0 22.386 0 50s22.386 50 50 50zM25 39.392C25 31.456 31.457 25 39.392 25h21.216C68.544 25 75 31.457 75 39.392v21.41c0 7.936-6.456 14.393-14.392 14.393H39.392C31.456 75.195 25 68.738 25 60.803V39.392zm11.988 10.613c0-7.12 5.856-12.913 13.052-12.913s13.05 5.793 13.05 12.913-5.854 12.913-13.05 12.913c-7.197 0-13.052-5.793-13.052-12.913zm4.754 0c0 4.498 3.722 8.159 8.298 8.159 4.575 0 8.297-3.66 8.297-8.159 0-4.498-3.723-8.158-8.297-8.158-4.576 0-8.298 3.66-8.298 8.158zm21.583-10.37a3.07 3.07 0 1 0 0-6.141 3.07 3.07 0 0 0 0 6.142z" fill="#000"/></svg>