<svg class="t-persons-social-links__svg" width="30" height="30" viewBox="0 0 100 100" fill="none" xmlns="http://www.w3.org/2000/svg"><path fill-rule="evenodd" clip-rule="evenodd" d="M50 100c27.614 0 50-22.386 50-50S77.614 0 50 0 0 22.386 0 50s22.386 50 50 50zm3.431-73.985c-2.516.07-5.171.675-7.046 2.457-1.55 1.433-2.33 3.518-2.505 5.602-.053 1.491-.046 2.986-.038 4.48.006 1.12.011 2.24-.009 3.359-.688.005-1.38.003-2.07.002-.922-.002-1.844-.004-2.763.01l.003 2.679c.002 1.791.005 3.585-.003 5.38.918.013 1.84.011 2.763.01.69-.002 1.382-.003 2.07.002.016 3.556.013 7.112.01 10.669-.003 4.445-.007 8.89.025 13.335a694.49 694.49 0 0 1 5.664-.01c1.415.002 2.83.003 4.248-.002.012-4 .009-7.998.006-11.996-.003-3.998-.006-7.996.006-11.996.953-.005 1.907-.004 2.86-.003 1.271.002 2.542.004 3.814-.01.396-2.678.733-5.38.92-8.094-1.258-.006-2.516-.006-3.774-.006s-2.516 0-3.773-.006l-.002-1.406c-.002-1.406-.004-2.812.013-4.219.198-1.083 1.316-1.91 2.4-1.84h5.147a982.34 982.34 0 0 0 0-8.41h-1.991a604.1 604.1 0 0 0-5.975.013z" fill="#000"/></svg>