<svg class="t-persons-social-links__svg" width="30" height="30" viewBox="0 0 100 100" fill="none" xmlns="http://www.w3.org/2000/svg"><path fill-rule="evenodd" clip-rule="evenodd" d="M50 100c27.614 0 50-22.386 50-50S77.614 0 50 0 0 22.386 0 50s22.386 50 50 50zM26.227 34.181c.304-.974.963-1.693 1.857-2.025l.415-.154L49.979 32c21.34-.001 21.481 0 21.88.134.964.325 1.681 1.148 1.98 2.272l.094.356-1.771 1.27a8413.058 8413.058 0 0 0-8.853 6.363c-.925.666-2.278 1.64-3.007 2.162-2.103 1.508-4.29 3.079-5.89 4.231-3.65 2.627-4.358 3.13-4.412 3.13-.054 0-.817-.542-4.504-3.197a3137.698 3137.698 0 0 0-5.8-4.164c-.729-.522-2.165-1.556-3.192-2.296-1.026-.74-2.442-1.76-3.146-2.264-.705-.505-2.35-1.688-3.656-2.628s-2.646-1.9-2.977-2.133c-.667-.471-.675-.488-.498-1.055zm-.15 27.183c-.062.04-.077-2.244-.077-11.327 0-6.257.012-11.377.027-11.377s1.063.746 2.33 1.658c2.26 1.628 3.453 2.486 6.712 4.827l5.676 4.079c.73.524 1.327.987 1.327 1.029 0 .072-.81.646-3.949 2.8-.746.513-2.093 1.44-2.992 2.062-.9.622-3.106 2.143-4.905 3.381a1017.558 1017.558 0 0 0-4.149 2.868zM69.311 42a494.72 494.72 0 0 0 2.869-2.073c.95-.69 1.748-1.259 1.774-1.261.025-.003.046 5.114.046 11.37 0 9.084-.015 11.367-.077 11.328A334.436 334.436 0 0 0 71.5 59.69a237.095 237.095 0 0 1-1.85-1.28c-.17-.121-.74-.515-1.265-.876-.526-.36-1.318-.904-1.759-1.208-.44-.305-2.134-1.471-3.763-2.593-4.735-3.261-4.936-3.403-4.936-3.479 0-.076.22-.239 4.041-2.98a5008.01 5008.01 0 0 0 4.288-3.082c1.052-.757 2.426-1.744 3.054-2.192zM37.815 57.137a651.82 651.82 0 0 0 4.812-3.331c1.222-.85 2.263-1.535 2.314-1.524.05.01 1.05.709 2.221 1.552 1.17.843 2.236 1.574 2.368 1.625.304.117.636.117.941 0 .132-.051 1.196-.781 2.366-1.623 1.17-.842 2.157-1.544 2.195-1.56.06-.025 1.511.958 5.827 3.948 1.143.792 2.72 1.88 5.953 4.105.95.654 2.922 2.014 4.38 3.022l2.654 1.833-.005.26c-.007.372-.348 1.078-.747 1.548-.386.455-1.005.83-1.555.94-.217.045-7.681.068-21.539.068s-21.322-.023-21.54-.067c-.549-.111-1.168-.486-1.554-.941-.374-.44-.713-1.118-.762-1.524l-.032-.26 1.656-1.14c.911-.628 2.211-1.524 2.89-1.994a2234.81 2234.81 0 0 1 7.157-4.937z" fill="#000"/></svg>